<svg width="85" height="26" viewBox="0 0 85 26" fill="none" xmlns="http://www.w3.org/2000/svg">
<path d="M0 13C0 5.8203 5.8203 0 13 0H72C79.1797 0 85 5.8203 85 13C85 20.1797 79.1797 26 72 26H13C5.8203 26 0 20.1797 0 13Z" fill="#0085FF"/>
<path d="M20.8203 17H22.1328V8.54492H20.8203V17ZM23.6914 17H24.9922V10.7363H25.0273L29.3809 17H30.5879V8.54492H29.2871V14.7969H29.252L24.9043 8.54492H23.6914V17ZM35.0352 17.1406C37.0391 17.1406 38.2578 16.1621 38.2578 14.6211V14.6152C38.2578 13.3086 37.5078 12.5996 35.7617 12.2305L34.8359 12.0371C33.7812 11.8086 33.3008 11.4219 33.3008 10.7891V10.7832C33.3008 10.0449 33.9688 9.54688 35.0176 9.54102C36.0195 9.54102 36.6992 10.0156 36.8164 10.8008L36.8223 10.8828H38.0996L38.0938 10.7832C38.0059 9.36523 36.7988 8.4043 35.0352 8.4043C33.248 8.4043 31.9766 9.39453 31.9707 10.8359V10.8418C31.9707 12.0957 32.7734 12.8574 34.4316 13.209L35.3516 13.4023C36.4707 13.6484 36.9336 14.0176 36.9336 14.6973V14.7031C36.9336 15.4941 36.2188 16.0039 35.0879 16.0039C33.957 16.0039 33.1777 15.5176 33.0605 14.7383L33.0488 14.6621H31.7715L31.7773 14.75C31.8828 16.2383 33.1367 17.1406 35.0352 17.1406ZM41.3047 17H42.6172V9.67578H45.2012V8.54492H38.7148V9.67578H41.3047V17ZM44.4863 17H45.8633L46.6426 14.7148H49.9004L50.6738 17H52.0508L48.9805 8.54492H47.5625L44.4863 17ZM48.2598 9.94531H48.2832L49.543 13.6602H46.9941L48.2598 9.94531ZM52.9883 17H58.2383V15.8691H54.3008V8.54492H52.9883V17ZM59.3633 17H64.6133V15.8691H60.6758V8.54492H59.3633V17Z" fill="white"/>
</svg>
