<svg width="100" height="26" viewBox="0 0 100 26" fill="none" xmlns="http://www.w3.org/2000/svg">
<path d="M0 13C0 5.8203 5.8203 0 13 0H87C94.1797 0 100 5.8203 100 13C100 20.1797 94.1797 26 87 26H13C5.8203 26 0 20.1797 0 13Z" fill="#FF7A00"/>
<path d="M23.3164 17.1406C25.4434 17.1406 26.7324 15.8809 26.7324 14.0293V8.54492H25.4258V13.9238C25.4258 15.1543 24.6641 15.9805 23.3164 15.9805C21.9688 15.9805 21.2012 15.1543 21.2012 13.9238V8.54492H19.8887V14.0293C19.8887 15.8809 21.1953 17.1406 23.3164 17.1406ZM28.291 17H29.5918V10.7363H29.627L33.9805 17H35.1875V8.54492H33.8867V14.7969H33.8516L29.5039 8.54492H28.291V17ZM36.752 17H38.0645V8.54492H36.752V17ZM39.623 17H40.9238V10.7363H40.959L45.3125 17H46.5195V8.54492H45.2188V14.7969H45.1836L40.8359 8.54492H39.623V17ZM50.9668 17.1406C52.9707 17.1406 54.1895 16.1621 54.1895 14.6211V14.6152C54.1895 13.3086 53.4395 12.5996 51.6934 12.2305L50.7676 12.0371C49.7129 11.8086 49.2324 11.4219 49.2324 10.7891V10.7832C49.2324 10.0449 49.9004 9.54688 50.9492 9.54102C51.9512 9.54102 52.6309 10.0156 52.748 10.8008L52.7539 10.8828H54.0312L54.0254 10.7832C53.9375 9.36523 52.7305 8.4043 50.9668 8.4043C49.1797 8.4043 47.9082 9.39453 47.9023 10.8359V10.8418C47.9023 12.0957 48.7051 12.8574 50.3633 13.209L51.2832 13.4023C52.4023 13.6484 52.8652 14.0176 52.8652 14.6973V14.7031C52.8652 15.4941 52.1504 16.0039 51.0195 16.0039C49.8887 16.0039 49.1094 15.5176 48.9922 14.7383L48.9805 14.6621H47.7031L47.709 14.75C47.8145 16.2383 49.0684 17.1406 50.9668 17.1406ZM57.2363 17H58.5488V9.67578H61.1328V8.54492H54.6465V9.67578H57.2363V17ZM60.418 17H61.7949L62.5742 14.7148H65.832L66.6055 17H67.9824L64.9121 8.54492H63.4941L60.418 17ZM64.1914 9.94531H64.2148L65.4746 13.6602H62.9258L64.1914 9.94531ZM68.9199 17H74.1699V15.8691H70.2324V8.54492H68.9199V17ZM75.2949 17H80.5449V15.8691H76.6074V8.54492H75.2949V17Z" fill="white"/>
</svg>
