<svg width="14" height="15" viewBox="0 0 14 15" fill="none" xmlns="http://www.w3.org/2000/svg">
<g filter="url(#filter0_d)">
<path d="M4.7274 0.887948L6.7274 2.88795L8.7274 0.894008C8.76677 0.853941 8.81404 0.822481 8.8662 0.801617C8.91836 0.780753 8.97428 0.770939 9.03043 0.772796C9.1406 0.779926 9.24442 0.826912 9.32248 0.904981C9.40055 0.983049 9.44754 1.08686 9.45467 1.19704C9.45522 1.25121 9.44476 1.30493 9.42392 1.35493C9.40308 1.40494 9.37231 1.45019 9.33346 1.48795L7.3274 3.50007L9.33346 5.51219C9.41225 5.58855 9.45588 5.69401 9.45467 5.8031C9.44754 5.91327 9.40055 6.01709 9.32248 6.09516C9.24442 6.17323 9.1406 6.22021 9.03043 6.22734C8.97428 6.2292 8.91836 6.21938 8.8662 6.19852C8.81404 6.17766 8.76677 6.1462 8.7274 6.10613L6.7274 4.11219L4.73346 6.10613C4.69408 6.1462 4.64682 6.17766 4.59466 6.19852C4.5425 6.21938 4.48657 6.2292 4.43043 6.22734C4.3182 6.2215 4.21211 6.17429 4.13264 6.09482C4.05318 6.01536 4.00597 5.90927 4.00012 5.79704C3.99958 5.74287 4.01004 5.68915 4.03087 5.63914C4.05171 5.58914 4.08249 5.54388 4.12134 5.50613L6.1274 3.50007L4.11528 1.48795C4.07752 1.44968 4.04786 1.4042 4.02808 1.35422C4.00829 1.30424 3.99879 1.25078 4.00012 1.19704C4.00725 1.08686 4.05424 0.983049 4.13231 0.904981C4.21038 0.826912 4.31419 0.779926 4.42437 0.772796C4.48008 0.77015 4.53574 0.779009 4.58787 0.798821C4.64001 0.818632 4.6875 0.848972 4.7274 0.887948Z" fill="#C65252"/>
</g>
<defs>
<filter id="filter0_d" x="0" y="0.772339" width="13.4547" height="13.4552" filterUnits="userSpaceOnUse" color-interpolation-filters="sRGB">
<feFlood flood-opacity="0" result="BackgroundImageFix"/>
<feColorMatrix in="SourceAlpha" type="matrix" values="0 0 0 0 0 0 0 0 0 0 0 0 0 0 0 0 0 0 127 0" result="hardAlpha"/>
<feOffset dy="4"/>
<feGaussianBlur stdDeviation="2"/>
<feComposite in2="hardAlpha" operator="out"/>
<feColorMatrix type="matrix" values="0 0 0 0 0 0 0 0 0 0 0 0 0 0 0 0 0 0 0.25 0"/>
<feBlend mode="normal" in2="BackgroundImageFix" result="effect1_dropShadow"/>
<feBlend mode="normal" in="SourceGraphic" in2="effect1_dropShadow" result="shape"/>
</filter>
</defs>
</svg>
