<svg width="100" height="26" viewBox="0 0 100 26" fill="none" xmlns="http://www.w3.org/2000/svg">
<path d="M0 13C0 5.8203 5.8203 0 13 0H87C94.1797 0 100 5.8203 100 13C100 20.1797 94.1797 26 87 26H13C5.8203 26 0 20.1797 0 13Z" fill="#CCD4DB"/>
<path d="M20.8438 17H22.1562V8.54492H20.8438V17ZM23.7148 17H25.0156V10.7363H25.0508L29.4043 17H30.6113V8.54492H29.3105V14.7969H29.2754L24.9277 8.54492H23.7148V17ZM35.0586 17.1406C37.0625 17.1406 38.2812 16.1621 38.2812 14.6211V14.6152C38.2812 13.3086 37.5312 12.5996 35.7852 12.2305L34.8594 12.0371C33.8047 11.8086 33.3242 11.4219 33.3242 10.7891V10.7832C33.3242 10.0449 33.9922 9.54688 35.041 9.54102C36.043 9.54102 36.7227 10.0156 36.8398 10.8008L36.8457 10.8828H38.123L38.1172 10.7832C38.0293 9.36523 36.8223 8.4043 35.0586 8.4043C33.2715 8.4043 32 9.39453 31.9941 10.8359V10.8418C31.9941 12.0957 32.7969 12.8574 34.4551 13.209L35.375 13.4023C36.4941 13.6484 36.957 14.0176 36.957 14.6973V14.7031C36.957 15.4941 36.2422 16.0039 35.1113 16.0039C33.9805 16.0039 33.2012 15.5176 33.084 14.7383L33.0723 14.6621H31.7949L31.8008 14.75C31.9062 16.2383 33.1602 17.1406 35.0586 17.1406ZM41.3281 17H42.6406V9.67578H45.2246V8.54492H38.7383V9.67578H41.3281V17ZM44.5098 17H45.8867L46.666 14.7148H49.9238L50.6973 17H52.0742L49.0039 8.54492H47.5859L44.5098 17ZM48.2832 9.94531H48.3066L49.5664 13.6602H47.0176L48.2832 9.94531ZM53.0117 17H58.2617V15.8691H54.3242V8.54492H53.0117V17ZM59.3867 17H64.6367V15.8691H60.6992V8.54492H59.3867V17ZM65.7617 17H71.1289V15.8691H67.0742V13.2441H70.9121V12.1426H67.0742V9.67578H71.1289V8.54492H65.7617V17ZM72.4766 17H75.459C77.9785 17 79.4609 15.4297 79.4609 12.7578V12.7461C79.4609 10.0859 77.9668 8.54492 75.459 8.54492H72.4766V17ZM73.7891 15.8633V9.67578H75.3359C77.1172 9.67578 78.1191 10.7715 78.1191 12.7578V12.7695C78.1191 14.7676 77.1289 15.8633 75.3359 15.8633H73.7891Z" fill="white"/>
</svg>
