<svg width="26" height="26" viewBox="0 0 26 26" fill="none" xmlns="http://www.w3.org/2000/svg">
<path d="M0 13C0 5.8203 5.8203 0 13 0C20.1797 0 26 5.8203 26 13C26 20.1797 20.1797 26 13 26C5.8203 26 0 20.1797 0 13Z" fill="#CCD4DB"/>
<path d="M18.8613 12.6668V13.2303C18.8606 14.5511 18.4329 15.8363 17.642 16.8942C16.8512 17.9521 15.7396 18.726 14.473 19.1004C13.2064 19.4749 11.8526 19.43 10.6137 18.9722C9.37473 18.5145 8.31693 17.6685 7.59804 16.5605C6.87915 15.4525 6.5377 14.1417 6.62461 12.8238C6.71151 11.5059 7.22212 10.2513 8.08027 9.24727C8.93843 8.24323 10.0982 7.54348 11.3865 7.2524C12.6748 6.96132 14.0227 7.09449 15.2292 7.63206" stroke="white" stroke-linecap="round" stroke-linejoin="round"/>
<path d="M18.8613 7.97681L12.8036 14.9768L10.9863 12.8789" stroke="white" stroke-linecap="round" stroke-linejoin="round"/>
</svg>
