<svg width="26" height="26" viewBox="0 0 26 26" fill="none" xmlns="http://www.w3.org/2000/svg">
<path d="M0 13C0 5.8203 5.8203 0 13 0C20.1797 0 26 5.8203 26 13C26 20.1797 20.1797 26 13 26C5.8203 26 0 20.1797 0 13Z" fill="#FF7A00"/>
<path d="M13.0001 18.5681C16.1782 18.5681 18.7546 16.0752 18.7546 12.9999C18.7546 9.92472 16.1782 7.43176 13.0001 7.43176C9.82197 7.43176 7.24561 9.92472 7.24561 12.9999C7.24561 16.0752 9.82197 18.5681 13.0001 18.5681Z" stroke="white" stroke-linecap="round" stroke-linejoin="round"/>
<path d="M14.7261 11.3296L11.2734 14.6705" stroke="white" stroke-linecap="round" stroke-linejoin="round"/>
<path d="M11.2734 11.3296L14.7261 14.6705" stroke="white" stroke-linecap="round" stroke-linejoin="round"/>
</svg>
