<svg width="26" height="25" viewBox="0 0 26 25" fill="none" xmlns="http://www.w3.org/2000/svg">
<g clip-path="url(#clip0)" filter="url(#filter0_d)">
<path d="M19.3552 7.09004V6.59004C19.3646 5.09936 18.7834 3.66561 17.7387 2.60219C16.694 1.53877 15.2708 0.93219 13.7802 0.915039H13.7252C12.4363 0.918753 11.1875 1.36387 10.1867 2.17627C9.18602 2.98868 8.49376 4.11935 8.22523 5.38004C7.23465 5.38004 6.28464 5.77355 5.58419 6.474C4.88374 7.17444 4.49023 8.12446 4.49023 9.11504C4.49023 10.1056 4.88374 11.0556 5.58419 11.7561C6.28464 12.4565 7.23465 12.85 8.22523 12.85H18.5652C19.2788 12.8578 19.9706 12.6048 20.5109 12.1387C21.0512 11.6726 21.4028 11.0253 21.4998 10.3183C21.5967 9.61139 21.4324 8.89334 21.0375 8.29896C20.6427 7.70458 20.0445 7.27472 19.3552 7.09004Z" fill="#0085FF"/>
<path d="M18.79 15.0899H13.425V13.8899H12.425V15.0899H7.04004C6.90743 15.0899 6.78025 15.1426 6.68649 15.2363C6.59272 15.3301 6.54004 15.4573 6.54004 15.5899C6.54004 15.7225 6.59272 15.8497 6.68649 15.9434C6.78025 16.0372 6.90743 16.0899 7.04004 16.0899H18.79C18.9226 16.0899 19.0498 16.0372 19.1436 15.9434C19.2374 15.8497 19.29 15.7225 19.29 15.5899C19.29 15.4573 19.2374 15.3301 19.1436 15.2363C19.0498 15.1426 18.9226 15.0899 18.79 15.0899Z" fill="#0085FF"/>
</g>
<defs>
<filter id="filter0_d" x="0" y="0.5" width="26" height="24" filterUnits="userSpaceOnUse" color-interpolation-filters="sRGB">
<feFlood flood-opacity="0" result="BackgroundImageFix"/>
<feColorMatrix in="SourceAlpha" type="matrix" values="0 0 0 0 0 0 0 0 0 0 0 0 0 0 0 0 0 0 127 0" result="hardAlpha"/>
<feOffset dy="4"/>
<feGaussianBlur stdDeviation="2"/>
<feComposite in2="hardAlpha" operator="out"/>
<feColorMatrix type="matrix" values="0 0 0 0 0 0 0 0 0 0 0 0 0 0 0 0 0 0 0.25 0"/>
<feBlend mode="normal" in2="BackgroundImageFix" result="effect1_dropShadow"/>
<feBlend mode="normal" in="SourceGraphic" in2="effect1_dropShadow" result="shape"/>
</filter>
<clipPath id="clip0">
<rect width="18" height="16" fill="white" transform="translate(4 0.5)"/>
</clipPath>
</defs>
</svg>
